<svg width="60" height="28" viewBox="0 0 60 28" fill="none" xmlns="http://www.w3.org/2000/svg">
<path d="M7.37917 1.50073L4.27368 6.75328L1.97331 11.5556C1.97331 11.5556 0.92445 14.1386 0.478074 15.9077C0.266806 16.7451 0.133019 18.0838 0.133019 18.0838C0.133019 18.0838 -0.0583795 19.5981 0.0180014 20.56C0.103359 21.6349 0.127755 22.2821 0.478074 23.2613C0.810552 24.1907 1.12664 24.6414 1.68577 25.3623C2.22253 26.0544 2.57603 26.3916 3.23851 26.8631C3.91234 27.3426 4.33216 27.5314 5.0788 27.7635C6.08591 28.0766 7.72422 27.9886 7.72422 27.9886L11.1748 27.3883L14.9129 25.7375L23.0792 21.1603L60 0L14.9129 15.9077C14.9129 15.9077 13.3711 16.2599 12.3825 16.358C11.8898 16.4068 10.8872 16.1328 10.8872 16.1328C10.8872 16.1328 10.1699 15.9077 9.62202 15.6826C8.8021 15.3457 7.95426 14.482 7.95426 14.482C7.95426 14.482 7.24437 13.6495 6.91909 12.9063C6.51754 11.9888 6.05646 10.5801 6.05646 10.5801C6.05646 10.5801 5.85908 9.22604 5.88393 8.40409C5.90809 7.60488 5.94371 7.16046 6.05646 6.3781C6.18131 5.51174 6.51653 4.20204 6.51653 4.20204L7.37917 1.50073Z" fill="#4CD137"/>
</svg>
