<svg width="90" height="50" viewBox="0 0 90 50" fill="none" xmlns="http://www.w3.org/2000/svg">
<path d="M11.0688 2.67987L6.41051 12.0594L2.95997 20.635C2.95997 20.635 1.38668 25.2475 0.717111 28.4067C0.400209 29.9019 0.199529 32.2925 0.199529 32.2925C0.199529 32.2925 -0.0875692 34.9967 0.027002 36.7143C0.155038 38.6338 0.191633 39.7894 0.717111 41.5381C1.21583 43.1976 1.68996 44.0026 2.52865 45.2899C3.3338 46.5257 3.86405 47.1278 4.85777 47.9698C5.86851 48.8261 6.49823 49.1632 7.6182 49.5777C9.12886 50.1368 11.5863 49.9797 11.5863 49.9797L16.7622 48.9077L22.3693 45.9598L34.6187 37.7862L90 0L22.3693 28.4067C22.3693 28.4067 20.0567 29.0356 18.5737 29.2106C17.8347 29.2979 16.3308 28.8087 16.3308 28.8087C16.3308 28.8087 15.2548 28.4067 14.433 28.0047C13.2032 27.4031 11.9314 25.8608 11.9314 25.8608C11.9314 25.8608 10.8665 24.3741 10.3786 23.0469C9.77631 21.4085 9.08469 18.8931 9.08469 18.8931C9.08469 18.8931 8.78862 16.4751 8.8259 15.0073C8.86214 13.5801 8.91557 12.7865 9.08469 11.3895C9.27197 9.84239 9.7748 7.50365 9.7748 7.50365L11.0688 2.67987Z" fill="#4CD137"/>
</svg>
